# xmcd
#
# Track frame offsets:
#	150
#	12398
#	25971
#	38296
#	50229
#	63066
#	74479
#	86577
#	97856
#	111933
#
# Disc length: 1661 seconds
#
# Revision: 1
# Processed by: cddbd v1.5.1PL0 Copyright (c) Steve Scherf et al.
# Submitted via: audiograbber 1.83.01
#
DISCID=7a067b0a
DTITLE=Roy Rogers - Old Time Country
DYEAR=1900
DGENRE=EN
TTITLE0=Melody of the Plains
TTITLE1=Moonlight on the Prairie
TTITLE2=On the Old Spanish Trail
TTITLE3=Ride, Ranger, Ride
TTITLE4=Blue Shadows on the Trail
TTITLE5=Times Changes Everything
TTITLE6=Yesterday
TTITLE7=Hadie Brown
TTITLE8=Listen to the Rhythm of the Range
TTITLE9=Tumbling Tumbleweeds
EXTD=Compilation in 2002 by Allegro Corporation
EXTT0=
EXTT1=
EXTT2=
EXTT3=
EXTT4=
EXTT5=
EXTT6=
EXTT7=
EXTT8=
EXTT9=
PLAYORDER=
